<svg width="30" height="30" viewBox="0 0 30 30" fill="none" xmlns="http://www.w3.org/2000/svg">
<path fill-rule="evenodd" clip-rule="evenodd" d="M15 0C15.3617 0 15.7085 0.143668 15.9642 0.3994C16.22 0.655131 16.3636 1.00198 16.3636 1.36364V2.72727C16.3636 3.08893 16.22 3.43578 15.9642 3.69151C15.7085 3.94724 15.3617 4.09091 15 4.09091C14.6383 4.09091 14.2915 3.94724 14.0358 3.69151C13.78 3.43578 13.6364 3.08893 13.6364 2.72727V1.36364C13.6364 1.00198 13.78 0.655131 14.0358 0.3994C14.2915 0.143668 14.6383 0 15 0ZM3.12682 3.12682C3.38254 2.87118 3.72932 2.72756 4.09091 2.72756C4.4525 2.72756 4.79928 2.87118 5.055 3.12682L6.41864 4.49045C6.66703 4.74764 6.80448 5.0921 6.80137 5.44964C6.79827 5.80718 6.65485 6.1492 6.40203 6.40203C6.1492 6.65485 5.80718 6.79827 5.44964 6.80137C5.0921 6.80448 4.74764 6.66703 4.49045 6.41864L3.12682 5.055C2.87118 4.79928 2.72756 4.4525 2.72756 4.09091C2.72756 3.72932 2.87118 3.38254 3.12682 3.12682ZM26.8732 3.12682C27.1288 3.38254 27.2724 3.72932 27.2724 4.09091C27.2724 4.4525 27.1288 4.79928 26.8732 5.055L25.5095 6.41864C25.3838 6.54888 25.2333 6.65276 25.0669 6.72423C24.9005 6.7957 24.7216 6.83331 24.5405 6.83489C24.3595 6.83646 24.1799 6.80196 24.0123 6.73339C23.8448 6.66483 23.6925 6.56357 23.5645 6.43554C23.4364 6.3075 23.3352 6.15525 23.2666 5.98766C23.198 5.82008 23.1635 5.64052 23.1651 5.45945C23.1667 5.27839 23.2043 5.09945 23.2758 4.93308C23.3472 4.76672 23.4511 4.61625 23.5814 4.49045L24.945 3.12682C25.2007 2.87118 25.5475 2.72756 25.9091 2.72756C26.2707 2.72756 26.6175 2.87118 26.8732 3.12682ZM15 8.18182C13.1917 8.18182 11.4575 8.90016 10.1788 10.1788C8.90016 11.4575 8.18182 13.1917 8.18182 15C8.18182 16.8083 8.90016 18.5425 10.1788 19.8212C11.4575 21.0998 13.1917 21.8182 15 21.8182C16.8083 21.8182 18.5425 21.0998 19.8212 19.8212C21.0998 18.5425 21.8182 16.8083 21.8182 15C21.8182 13.1917 21.0998 11.4575 19.8212 10.1788C18.5425 8.90016 16.8083 8.18182 15 8.18182ZM0 15C0 14.6383 0.143668 14.2915 0.3994 14.0358C0.655131 13.78 1.00198 13.6364 1.36364 13.6364H2.72727C3.08893 13.6364 3.43578 13.78 3.69151 14.0358C3.94724 14.2915 4.09091 14.6383 4.09091 15C4.09091 15.3617 3.94724 15.7085 3.69151 15.9642C3.43578 16.22 3.08893 16.3636 2.72727 16.3636H1.36364C1.00198 16.3636 0.655131 16.22 0.3994 15.9642C0.143668 15.7085 0 15.3617 0 15ZM25.9091 15C25.9091 14.6383 26.0528 14.2915 26.3085 14.0358C26.5642 13.78 26.9111 13.6364 27.2727 13.6364H28.6364C28.998 13.6364 29.3449 13.78 29.6006 14.0358C29.8563 14.2915 30 14.6383 30 15C30 15.3617 29.8563 15.7085 29.6006 15.9642C29.3449 16.22 28.998 16.3636 28.6364 16.3636H27.2727C26.9111 16.3636 26.5642 16.22 26.3085 15.9642C26.0528 15.7085 25.9091 15.3617 25.9091 15ZM4.49045 23.5814C4.74764 23.333 5.0921 23.1955 5.44964 23.1986C5.80718 23.2017 6.1492 23.3451 6.40203 23.598C6.65485 23.8508 6.79827 24.1928 6.80137 24.5504C6.80448 24.9079 6.66703 25.2524 6.41864 25.5095L5.055 26.8732C4.79781 27.1216 4.45336 27.259 4.09582 27.2559C3.73828 27.2528 3.39626 27.1094 3.14343 26.8566C2.8906 26.6037 2.74719 26.2617 2.74408 25.9042C2.74097 25.5466 2.87842 25.2022 3.12682 24.945L4.49045 23.5814ZM24.945 26.8732L23.5814 25.5095C23.333 25.2524 23.1955 24.9079 23.1986 24.5504C23.2017 24.1928 23.3451 23.8508 23.598 23.598C23.8508 23.3451 24.1928 23.2017 24.5504 23.1986C24.9079 23.1955 25.2524 23.333 25.5095 23.5814L26.8732 24.945C27.1216 25.2022 27.259 25.5466 27.2559 25.9042C27.2528 26.2617 27.1094 26.6037 26.8566 26.8566C26.6037 27.1094 26.2617 27.2528 25.9042 27.2559C25.5466 27.259 25.2022 27.1216 24.945 26.8732ZM15 25.9091C15.3617 25.9091 15.7085 26.0528 15.9642 26.3085C16.22 26.5642 16.3636 26.9111 16.3636 27.2727V28.6364C16.3636 28.998 16.22 29.3449 15.9642 29.6006C15.7085 29.8563 15.3617 30 15 30C14.6383 30 14.2915 29.8563 14.0358 29.6006C13.78 29.3449 13.6364 28.998 13.6364 28.6364V27.2727C13.6364 26.9111 13.78 26.5642 14.0358 26.3085C14.2915 26.0528 14.6383 25.9091 15 25.9091Z" fill="#FFE600"/>
<path d="M15 6.81818C12.83 6.81818 10.749 7.68019 9.21458 9.21458C7.68019 10.749 6.81818 12.83 6.81818 15C6.81818 17.17 7.68019 19.251 9.21458 20.7854C10.749 22.3198 12.83 23.1818 15 23.1818C17.17 23.1818 19.251 22.3198 20.7854 20.7854C22.3198 19.251 23.1818 17.17 23.1818 15C23.1818 12.83 22.3198 10.749 20.7854 9.21458C19.251 7.68019 17.17 6.81818 15 6.81818Z" fill="#FFE600"/>
</svg>
