<svg width="32" height="60" viewBox="0 0 32 60" fill="none" xmlns="http://www.w3.org/2000/svg">
<path d="M17.75 50.8125C18.375 50.8125 18.6875 50.2812 18.6875 49.2188C18.6875 48.1562 18.2396 46.4688 17.3438 44.1562C16.4479 41.8229 15.0729 38.8542 13.2188 35.25C11.3646 31.6458 9.32292 27.8854 7.09375 23.9688C4.88542 20.0521 2.90625 16.4896 1.15625 13.2812C7.46875 9.30208 12.3854 4.88542 15.9062 0.03125C20.5938 1.71875 25.7292 3.41667 31.3125 5.125C29.1458 7.91667 26.9583 10.6875 24.75 13.4375C24.0833 12.4167 22.4271 11.3646 19.7812 10.2812C17.1562 9.19792 15.3646 8.65625 14.4062 8.65625C13.4479 8.65625 12.8438 8.80208 12.5938 9.09375C12.3438 9.38542 12.2188 9.76042 12.2188 10.2188C12.2188 11.6354 13.0625 14.375 14.75 18.4375C15.8125 18.5 17.5208 18.5312 19.875 18.5312C22.2292 18.5312 25.6146 18.2604 30.0312 17.7188C29.5729 20.2188 29.1562 22.6979 28.7812 25.1562L17.5 24.5625C20.5417 31.0208 23.7812 36.7292 27.2188 41.6875C23.6562 46.5833 19.3646 52.5521 14.3438 59.5938C9.26042 57.0938 4.75 52.9062 0.8125 47.0312C1.77083 44.6354 3.03125 41.4583 4.59375 37.5C6.71875 40.75 9.20833 43.7812 12.0625 46.5938C14.9167 49.4062 16.8125 50.8125 17.75 50.8125Z" fill="white"/>
</svg>
