<svg width="28" height="30" viewBox="0 0 28 30" fill="none" xmlns="http://www.w3.org/2000/svg">
<path d="M26.0642 24.3429C23.273 24.3113 20.567 23.3776 18.3503 21.6811C16.1337 19.9846 14.5255 17.6164 13.766 14.9303C13.0065 12.2443 13.1364 9.3846 14.1364 6.77853C15.1364 4.17245 16.9528 1.9599 19.3142 0.471429C18.121 0.161257 16.8935 0.00286306 15.6606 0C11.6824 0 7.86709 1.58035 5.05404 4.3934C2.241 7.20644 0.660645 11.0218 0.660645 15C0.660645 18.9782 2.241 22.7936 5.05404 25.6066C7.86709 28.4196 11.6824 30 15.6606 30C17.9143 29.998 20.1378 29.4815 22.1617 28.49C24.1855 27.4985 25.9564 26.0581 27.3392 24.2786C26.9156 24.3216 26.49 24.3431 26.0642 24.3429Z" fill="white"/>
</svg>
